<svg width="31" height="23" viewBox="0 0 31 23" fill="none" xmlns="http://www.w3.org/2000/svg">
<rect width="31" height="23" rx="4" fill="#FFE2DB"/>
<path d="M11.0294 6.248V12.704H12.4094C12.6574 12.704 12.8574 12.636 13.0094 12.5C13.1614 12.364 13.2374 12.18 13.2374 11.948V6.248H14.4734V11.984C14.4734 12.616 14.2854 13.112 13.9094 13.472C13.5414 13.824 13.0414 14 12.4094 14H9.79344V6.248H11.0294ZM18.8123 12.704C18.8523 12.704 18.8803 12.748 18.8963 12.836C18.9203 12.924 18.9323 13.104 18.9323 13.376C18.9323 13.632 18.9203 13.8 18.8963 13.88C18.8803 13.96 18.8523 14 18.8123 14H18.4523C17.8123 14 17.3283 13.812 17.0003 13.436C16.6723 13.06 16.5083 12.528 16.5083 11.84V6.248H17.7443V11.756C17.7443 12.084 17.8043 12.324 17.9243 12.476C18.0523 12.628 18.2523 12.704 18.5243 12.704H18.8123ZM22.1164 11.984C22.1164 12.616 21.9284 13.112 21.5524 13.472C21.1764 13.824 20.6724 14 20.0404 14H18.8164C18.7364 14 18.6964 13.792 18.6964 13.376C18.6964 12.928 18.7364 12.704 18.8164 12.704H20.0404C20.2884 12.704 20.4884 12.64 20.6404 12.512C20.7924 12.376 20.8684 12.188 20.8684 11.948V10.016H22.1164V11.984ZM19.0564 16.58V15.404H20.4964V16.58H19.0564Z" fill="#FF5F37"/>
</svg>
