<svg width="22" height="26" viewBox="0 0 22 26" fill="none" xmlns="http://www.w3.org/2000/svg">
<path d="M14.8415 3.83337H7.15982C3.82315 3.83337 1.83398 5.82254 1.83398 9.15921V16.8317C1.83398 20.1775 3.82315 22.1667 7.15982 22.1667H14.8323C18.169 22.1667 20.1582 20.1775 20.1582 16.8409V9.15921C20.1673 5.82254 18.1782 3.83337 14.8415 3.83337ZM15.3823 10.8917L10.1848 16.0892C10.0565 16.2175 9.88232 16.2909 9.69898 16.2909C9.51565 16.2909 9.34148 16.2175 9.21315 16.0892L6.61898 13.495C6.35315 13.2292 6.35315 12.7892 6.61898 12.5234C6.88482 12.2575 7.32482 12.2575 7.59065 12.5234L9.69898 14.6317L14.4107 9.92004C14.6765 9.65421 15.1165 9.65421 15.3823 9.92004C15.6482 10.1859 15.6482 10.6167 15.3823 10.8917Z" fill="#007BFF"/>
</svg>
