<svg width="22" height="26" viewBox="0 0 22 26" fill="none" xmlns="http://www.w3.org/2000/svg">
<path d="M14.8405 3.83337H7.15884C3.82217 3.83337 1.83301 5.82254 1.83301 9.15921V16.8317C1.83301 20.1775 3.82217 22.1667 7.15884 22.1667H14.8313C18.168 22.1667 20.1572 20.1775 20.1572 16.8409V9.15921C20.1663 5.82254 18.1772 3.83337 14.8405 3.83337ZM15.3813 10.8917L10.1838 16.0892C10.0555 16.2175 9.88134 16.2909 9.69801 16.2909C9.51467 16.2909 9.34051 16.2175 9.21217 16.0892L6.61801 13.495C6.35217 13.2292 6.35217 12.7892 6.61801 12.5234C6.88384 12.2575 7.32384 12.2575 7.58967 12.5234L9.69801 14.6317L14.4097 9.92004C14.6755 9.65421 15.1155 9.65421 15.3813 9.92004C15.6472 10.1859 15.6472 10.6167 15.3813 10.8917Z" fill="#007BFF"/>
</svg>
